<?xml version="1.0" standalone="no"?>
<!DOCTYPE svg PUBLIC "-//W3C//DTD SVG 20010904//EN"
 "http://www.w3.org/TR/2001/REC-SVG-20010904/DTD/svg10.dtd">
<svg version="1.0" xmlns="http://www.w3.org/2000/svg"
 width="500.000000pt" height="375.000000pt" viewBox="0 0 500.000000 375.000000"
 preserveAspectRatio="xMidYMid meet">

<g transform="translate(0.000000,375.000000) scale(0.100000,-0.100000)"
fill="#000000" stroke="none">
<path d="M2633 3741 c-53 -5 -67 -11 -98 -41 -36 -35 -98 -134 -98 -157 0 -7
-6 -14 -12 -17 -7 -2 -39 -40 -72 -84 -73 -97 -79 -120 -93 -352 -12 -200 -37
-376 -100 -695 -11 -55 -20 -111 -20 -125 l0 -25 20 25 c22 28 25 23 9 -14 -7
-14 -17 -23 -22 -19 -6 4 -8 0 -4 -11 4 -9 0 -30 -8 -47 -9 -16 -12 -29 -8
-29 5 -1 -3 -7 -17 -15 -19 -11 -21 -14 -7 -15 12 0 17 -8 17 -26 0 -33 29
-96 41 -88 6 3 7 -6 3 -22 -5 -18 -3 -25 4 -21 15 10 28 -42 22 -88 -5 -40 4
-142 14 -152 2 -3 10 -2 16 2 7 4 9 22 4 51 -3 24 -3 55 0 70 6 21 9 24 22 13
20 -16 18 -143 -2 -135 -9 3 -16 -4 -20 -19 -7 -27 3 -48 17 -39 6 3 9 0 8 -7
-2 -8 2 -23 8 -34 6 -11 12 -36 14 -55 2 -19 7 -40 12 -47 5 -6 7 -20 5 -30
-1 -10 1 -24 5 -30 5 -8 3 -13 -4 -13 -6 0 -1 -9 12 -20 23 -18 23 -19 4 -20
-17 0 -15 -3 10 -20 34 -22 45 -25 45 -10 0 6 -8 10 -17 11 -12 0 -14 2 -5 6
8 3 26 -7 42 -22 21 -20 34 -25 50 -20 31 10 20 -6 -64 -100 -60 -67 -159
-147 -257 -208 -16 -11 -29 -22 -29 -26 0 -5 -18 -16 -40 -26 -22 -10 -40 -23
-40 -28 0 -6 -3 -7 -6 -4 -4 4 -19 -2 -34 -13 -16 -11 -33 -20 -39 -20 -6 0
-55 -23 -108 -52 -148 -77 -154 -81 -212 -120 -29 -20 -60 -34 -67 -31 -8 3
-14 0 -14 -6 0 -6 -3 -10 -7 -10 -36 6 -54 -4 -67 -35 -11 -27 -24 -38 -68
-54 -82 -30 -105 -34 -111 -18 -4 10 0 12 14 9 10 -3 19 0 19 6 0 6 5 11 12
11 21 0 98 41 98 53 0 8 -4 7 -12 -1 -16 -16 -28 -15 -28 3 0 12 -9 14 -42 9
-62 -8 -195 -50 -334 -105 -123 -49 -242 -84 -251 -75 -3 3 8 8 23 11 54 12
129 35 159 49 30 14 30 14 -27 15 -40 1 -81 -8 -140 -30 -46 -17 -94 -33 -108
-35 -20 -4 -18 -1 12 18 21 13 38 27 38 31 0 5 -6 5 -12 0 -7 -4 -20 -8 -28
-8 -8 0 -36 -4 -63 -9 -33 -6 -51 -5 -62 4 -12 10 -15 9 -15 -4 0 -20 -9 -20
-60 0 -23 9 -43 15 -45 12 -2 -2 2 -17 10 -32 15 -27 14 -28 -7 -21 -13 3 -34
8 -48 9 -14 2 -45 13 -68 25 -49 25 -175 41 -186 23 -8 -14 113 -250 161 -313
65 -85 57 -83 313 -81 124 2 239 -2 255 -7 25 -8 26 -9 8 -10 -13 -1 -23 -5
-23 -10 0 -11 36 -21 78 -21 17 0 32 -5 32 -11 0 -11 49 -9 105 5 11 2 23 5
26 5 18 2 59 45 50 50 -22 14 45 47 119 59 63 10 217 25 348 34 39 3 48 38 8
38 -16 0 -31 12 -51 41 -15 23 -23 45 -18 49 4 4 42 20 83 35 111 42 171 71
162 80 -4 4 4 4 17 0 16 -5 21 -4 17 4 -5 7 5 11 29 11 24 0 34 4 29 11 -4 8
0 9 15 4 11 -3 21 -2 21 3 0 6 7 13 16 16 9 3 12 2 9 -5 -4 -6 17 2 45 16 42
21 54 24 61 13 5 -7 9 -17 9 -22 0 -5 10 -23 23 -40 13 -17 26 -39 30 -49 4
-11 12 -15 18 -11 8 4 9 3 5 -5 -11 -17 10 -38 52 -52 20 -6 61 -20 89 -31 52
-19 52 -20 37 -43 -10 -15 -12 -25 -5 -30 16 -9 445 -6 581 5 63 5 180 16 260
25 83 9 177 14 220 11 41 -3 134 1 205 8 72 7 148 12 170 10 22 -1 138 -5 258
-9 120 -3 251 -12 290 -20 39 -7 73 -12 76 -10 2 2 10 -2 18 -10 8 -8 24 -15
36 -15 12 0 41 -7 65 -16 35 -14 47 -15 66 -5 l23 13 -17 71 c-9 40 -29 104
-43 144 -28 76 -86 195 -87 178 0 -5 -10 -11 -22 -11 -63 -5 -139 -18 -144
-25 -3 -5 -25 3 -49 17 -29 16 -69 28 -112 33 -38 5 -58 9 -47 10 12 0 41 10
65 20 24 11 89 32 144 47 55 15 102 29 104 30 2 2 1 10 -2 17 -5 13 -18 12
-94 -3 -48 -10 -134 -21 -190 -25 -95 -6 -105 -5 -129 14 -15 12 -33 21 -40
21 -8 0 -25 21 -38 48 -35 67 -138 208 -198 269 -28 29 -47 53 -40 53 6 0 14
-5 17 -10 4 -6 10 -8 15 -5 5 3 26 -2 47 -11 62 -26 102 -34 96 -18 -7 18 -1
17 44 -1 30 -13 34 -13 24 -1 -7 8 -27 18 -44 22 -18 3 -48 14 -67 24 -20 10
-59 20 -87 22 -60 5 -70 10 -48 28 8 7 15 19 15 26 0 27 -15 13 -33 -30 -22
-53 -33 -64 -76 -72 -26 -6 -30 -4 -25 10 9 23 -24 25 -141 6 -103 -17 -286 4
-270 30 3 4 -3 6 -12 4 -10 -3 -50 16 -94 45 -71 47 -78 50 -127 45 -39 -4
-61 0 -91 15 -55 29 -181 141 -181 162 0 10 -4 21 -10 24 -5 3 -15 16 -20 28
-11 22 -11 22 5 2 22 -27 51 -58 67 -70 7 -6 42 -33 78 -60 88 -68 137 -98
144 -86 4 5 -2 12 -12 15 -17 6 -175 155 -247 234 -47 52 -1 29 70 -35 72 -65
161 -126 177 -121 6 2 -34 36 -89 75 -132 95 -232 206 -261 292 -7 19 -12 64
-12 101 0 98 40 181 105 213 35 18 89 66 82 73 -3 3 -20 -4 -38 -15 -19 -12
-41 -21 -50 -21 -21 0 -30 22 -18 41 15 23 10 57 -13 102 -12 23 -21 49 -20
57 2 12 1 12 -6 1 -7 -10 -14 -10 -30 -2 -25 14 -25 46 0 83 16 24 17 27 3 22
-11 -5 -32 10 -66 45 -27 28 -47 51 -44 51 3 0 1 9 -5 20 -7 14 -6 30 6 60 21
53 44 54 37 1 -7 -49 7 -73 63 -112 39 -27 50 -30 70 -21 13 6 26 7 29 2 3 -4
39 -16 80 -26 41 -10 75 -21 75 -25 0 -19 62 -77 88 -82 26 -5 29 -11 41 -74
8 -37 20 -85 27 -105 10 -28 10 -38 1 -42 -7 -4 1 -4 18 -2 16 2 37 1 45 -4 8
-4 49 -10 90 -13 l75 -5 -64 14 c-98 22 -143 35 -138 40 3 3 22 1 43 -5 59
-15 212 -33 274 -32 53 1 136 18 96 20 -13 1 -16 6 -12 18 4 9 2 37 -3 62 -25
116 -41 201 -51 263 -10 67 -10 67 22 113 18 25 43 48 57 52 33 8 90 -24 114
-64 10 -18 23 -33 29 -33 5 0 23 -12 39 -27 32 -31 38 -71 18 -133 -13 -42
-27 -170 -19 -170 3 0 28 14 54 30 40 26 47 28 42 12 -4 -12 0 -25 9 -32 21
-18 40 -64 49 -120 7 -48 64 -171 93 -205 10 -11 35 -33 56 -49 20 -16 37 -36
37 -45 0 -10 7 -26 15 -37 14 -18 15 -17 9 10 -5 19 -2 31 7 37 11 7 12 9 1 9
-21 0 -130 115 -138 144 -3 14 -10 26 -15 26 -5 0 -9 17 -9 38 0 27 3 33 10
22 5 -8 10 -24 10 -35 0 -23 20 -53 66 -99 17 -17 34 -39 37 -48 9 -26 31 -22
47 7 7 14 17 25 22 25 5 0 4 -9 -1 -19 -9 -16 -8 -18 9 -14 31 8 33 20 9 53
-13 16 -20 32 -17 36 4 3 12 -4 18 -16 10 -18 14 -20 21 -9 6 10 9 8 9 -8 0
-13 5 -23 10 -23 6 0 10 10 10 23 0 17 -16 36 -57 67 -32 24 -50 40 -40 37 11
-4 17 -1 17 9 0 10 -6 14 -15 10 -10 -4 -17 3 -21 22 -4 15 -12 37 -20 49 -7
11 -14 38 -15 60 -1 21 -9 46 -17 56 -8 9 -12 20 -9 23 3 4 2 15 -4 25 -5 11
-7 19 -4 19 12 0 54 -56 55 -72 0 -9 5 -20 10 -23 6 -3 10 -16 9 -28 0 -21 -1
-21 -10 2 -5 13 -12 21 -15 18 -9 -9 6 -65 21 -77 8 -6 12 -17 9 -24 -3 -8 2
-16 12 -20 15 -6 15 -4 3 11 -12 15 -12 16 3 10 9 -3 33 -9 53 -13 l37 -7 -36
50 c-28 39 -36 60 -36 93 0 46 -21 100 -57 143 -19 24 -23 25 -24 10 0 -13 -5
-9 -15 12 -15 28 -129 103 -141 92 -2 -3 5 -8 16 -12 12 -3 21 -11 21 -16 0
-5 -29 11 -65 36 -36 25 -70 43 -76 40 -5 -4 -9 -3 -8 2 1 4 -45 56 -103 114
-58 59 -112 120 -120 135 -79 150 -108 213 -108 237 0 16 -4 26 -8 23 -5 -3
-9 0 -9 7 -1 7 -6 27 -11 45 -15 46 -5 40 17 -11 19 -45 58 -88 45 -51 -4 12
3 8 20 -11 14 -16 25 -33 26 -37 0 -5 5 -8 10 -8 6 0 -4 24 -21 53 -17 28 -40
72 -51 97 -11 25 -44 96 -74 158 -30 62 -54 115 -54 119 0 3 -14 33 -30 66
-39 75 -160 209 -214 235 -47 23 -158 33 -253 23z m-23 -528 c0 -7 5 -13 10
-13 6 0 10 7 10 15 0 8 7 15 15 15 8 0 15 -5 15 -11 0 -6 6 -17 14 -25 8 -7
16 -19 18 -25 2 -6 25 -13 51 -16 46 -6 48 -7 58 -49 11 -41 13 -43 53 -46
l41 -3 1 -70 c0 -38 -3 -78 -9 -89 -6 -13 -5 -21 4 -27 12 -7 12 -9 0 -9 -8 0
-12 -3 -8 -6 3 -3 -5 -25 -17 -47 -13 -23 -31 -66 -40 -94 -10 -31 -24 -53
-32 -53 -8 0 -14 -8 -14 -17 0 -18 -28 -53 -42 -53 -4 0 -8 8 -9 18 0 11 -2
12 -6 4 -4 -10 -8 -10 -21 0 -12 10 -16 10 -19 1 -6 -16 -93 -18 -93 -3 0 6
11 16 25 22 26 12 35 38 13 38 -7 0 -25 -7 -40 -14 -25 -13 -29 -13 -38 4 -10
19 -5 184 7 202 3 6 -10 25 -28 44 -18 19 -30 34 -26 34 7 0 1 10 -29 43 -14
16 -25 86 -18 115 4 12 13 22 20 22 8 0 14 5 14 10 0 6 6 10 13 10 14 0 49 35
65 66 12 23 42 28 42 7z m640 -99 c12 -19 21 -37 18 -39 -2 -2 -14 14 -26 36
-28 49 -22 52 8 3z m-919 -75 c9 -18 13 -123 7 -216 -2 -42 0 -49 10 -40 18
15 10 -47 -17 -133 -25 -78 -25 -80 -6 -80 8 0 15 -9 15 -20 0 -12 8 -32 17
-47 l17 -26 -24 14 c-39 23 -80 73 -75 92 3 9 8 27 11 39 6 21 5 21 -10 9 -9
-8 -15 -19 -13 -25 2 -6 1 -20 -4 -31 l-8 -20 -1 20 c-7 83 -7 114 2 138 6 15
14 27 17 27 4 0 17 13 28 29 21 28 21 31 8 141 -8 61 -17 120 -20 130 -5 15
-1 18 15 17 12 -1 26 -9 31 -18z m652 -177 c-3 -12 -9 -22 -14 -22 -12 0 -11
7 3 30 15 24 19 21 11 -8z m-33 3 c-6 -8 -8 -20 -4 -27 5 -10 4 -10 -6 -1 -11
10 -11 15 0 28 7 8 15 15 17 15 3 0 0 -7 -7 -15z m-510 -153 c0 -12 -39 -46
-45 -41 -6 7 24 49 36 49 5 0 9 -4 9 -8z m-209 -108 c-5 -21 -9 -30 -10 -19
-1 24 10 67 15 62 3 -2 0 -22 -5 -43z m887 -79 c1 -47 -1 -85 -5 -85 -11 0
-35 70 -36 103 0 15 8 36 18 47 10 11 19 20 19 20 1 0 2 -38 4 -85z m-408 40
c0 -8 -4 -15 -9 -15 -5 0 -17 -3 -26 -6 -15 -6 -15 -4 -4 15 16 24 39 28 39 6z
m328 -37 c-26 -34 -48 -47 -48 -28 0 6 4 8 10 5 6 -4 9 3 7 16 -2 21 4 25 52
38 2 1 -8 -13 -21 -31z m-358 -29 c0 -20 -4 -21 -42 -15 -58 9 -69 20 -28 27
63 11 70 10 70 -12z m387 6 c0 -8 -4 -15 -9 -15 -5 0 -8 -6 -7 -12 3 -27 -2
-38 -17 -38 -18 0 -11 35 14 63 18 21 19 21 19 2z m-830 -32 c-3 -10 -5 -4 -5
12 0 17 2 24 5 18 2 -7 2 -21 0 -30z m1558 -43 c9 -14 18 -66 10 -58 -4 3 -8
13 -9 22 -1 9 -11 23 -22 31 -17 13 -17 14 -2 15 9 0 20 -5 23 -10z m-1585
-54 c0 -8 -4 -18 -10 -21 -5 -3 -10 3 -10 14 0 12 5 21 10 21 6 0 10 -6 10
-14z m1656 -53 c7 -10 13 -27 13 -38 0 -19 -1 -19 -13 -3 -7 10 -16 15 -19 11
-4 -3 -7 6 -7 20 0 31 7 34 26 10z m-1618 -64 c-6 -16 -12 -28 -15 -26 -7 7 8
57 18 57 4 0 3 -14 -3 -31z m-51 -81 c-3 -8 -6 -5 -6 6 -1 11 2 17 5 13 3 -3
4 -12 1 -19z m1710 -40 c-3 -7 -5 -2 -5 12 0 14 2 19 5 13 2 -7 2 -19 0 -25z
m-1728 -75 c0 -25 -1 -26 -9 -8 -12 27 -12 35 0 35 6 0 10 -12 9 -27z m18 -55
c-3 -8 -6 -5 -6 6 -1 11 2 17 5 13 3 -3 4 -12 1 -19z m143 -95 c0 -13 -4 -23
-10 -23 -5 0 -10 17 -10 38 0 27 3 33 10 22 5 -8 10 -25 10 -37z m53 -94 c-3
-11 -9 -22 -14 -25 -10 -6 -12 49 -2 59 10 11 21 -13 16 -34z m-110 -81 c4
-41 2 -68 -3 -68 -6 0 -10 32 -10 72 0 87 5 86 13 -4z m74 -15 c-3 -10 -5 -2
-5 17 0 19 2 27 5 18 2 -10 2 -26 0 -35z m280 -393 c14 -11 31 -20 37 -20 6 0
4 5 -4 10 -8 5 -10 10 -4 10 6 0 23 -9 38 -21 19 -15 34 -19 52 -15 14 4 23 3
21 -1 -3 -5 17 -8 45 -8 32 0 52 -4 55 -12 3 -7 11 -13 19 -13 8 0 14 -4 14
-9 0 -5 10 -13 23 -17 12 -4 25 -11 29 -17 3 -6 16 -12 28 -14 11 -2 34 -10
50 -18 16 -8 40 -15 53 -15 24 0 92 -29 72 -31 -19 -1 101 -41 154 -50 35 -6
72 -6 109 1 31 5 75 10 98 10 26 0 44 5 47 14 7 19 58 12 75 -11 9 -13 15 -15
20 -6 5 9 14 2 26 -20 10 -19 11 -25 3 -14 -10 12 -17 14 -22 7 -4 -6 7 -16
24 -23 36 -15 80 -71 76 -95 -2 -9 -4 -22 -4 -29 -2 -20 -31 -43 -56 -43 -13
0 -25 -4 -27 -9 -4 -12 -147 -21 -154 -9 -3 5 -23 8 -45 7 -21 -2 -41 0 -45 4
-4 4 -41 7 -83 7 -48 0 -98 7 -136 19 -33 11 -114 36 -180 56 -66 21 -152 51
-192 68 -67 28 -74 29 -115 17 -23 -7 -63 -14 -88 -17 -25 -3 -52 -11 -60 -17
-8 -7 -35 -21 -60 -30 -82 -31 -100 -41 -100 -53 0 -7 -10 -18 -22 -24 -13 -7
-27 -18 -31 -25 -4 -8 -18 -14 -29 -14 -12 0 -19 -3 -16 -6 7 -7 -56 -74 -70
-74 -5 0 -15 -7 -22 -15 -7 -8 -20 -15 -29 -15 -10 0 -27 -9 -39 -20 -12 -12
-22 -16 -22 -10 0 7 -6 8 -19 0 -11 -5 -28 -10 -39 -10 -11 0 -22 -9 -25 -20
-3 -14 -14 -20 -32 -20 -14 0 -39 -7 -55 -15 -16 -8 -36 -12 -44 -9 -8 3 -25
-1 -38 -10 -12 -9 -29 -16 -37 -16 -8 0 -23 -7 -33 -17 -10 -9 -37 -20 -61
-24 -23 -4 -78 -18 -123 -30 -72 -20 -84 -21 -112 -8 -18 8 -32 17 -32 21 0 5
-9 8 -20 8 -21 0 -25 7 -12 26 9 15 203 121 267 146 27 11 57 25 65 32 8 7 56
33 105 57 50 24 95 49 100 56 6 7 27 19 47 28 21 8 45 26 53 39 9 14 28 29 43
35 27 11 51 25 81 48 49 38 160 167 185 215 15 27 28 38 52 42 17 4 47 17 65
30 42 30 73 32 106 6z m113 -27 c0 -7 -39 17 -46 28 -3 6 5 3 20 -6 14 -10 26
-19 26 -22z m364 -676 c21 -9 51 -17 67 -17 15 0 39 -4 53 -10 19 -7 29 -6 41
6 13 14 15 14 15 -2 0 -12 3 -14 13 -6 19 16 35 -39 32 -111 -3 -64 -6 -69
-37 -74 -12 -2 -25 -7 -28 -12 -15 -24 -377 -37 -425 -16 -22 10 -42 11 -71 5
-61 -14 -103 -1 -151 44 -25 23 -32 46 -9 27 26 -21 74 -31 80 -16 9 24 65 46
117 48 28 0 52 4 55 9 3 4 18 8 33 8 34 0 74 26 51 34 -28 9 -180 11 -183 2
-2 -5 -13 1 -25 14 -13 14 -34 24 -50 25 -37 0 -35 27 3 36 17 4 44 12 60 17
17 5 95 9 175 8 112 -2 154 -6 184 -19z m-822 -6 c2 -5 10 -11 18 -13 8 -2 18
-7 21 -11 3 -5 31 -8 63 -8 45 0 58 -4 66 -20 15 -27 66 -26 73 1 4 15 14 20
37 20 30 0 31 -1 28 -37 -3 -33 -7 -38 -30 -41 -16 -2 -28 -9 -28 -18 0 -8 -5
-14 -10 -14 -6 0 -14 -10 -19 -22 l-8 -22 -12 22 c-10 19 -15 21 -33 11 -13
-7 -23 -7 -27 -1 -3 5 -23 12 -43 16 -21 4 -38 12 -38 19 0 7 -10 17 -22 22
-13 6 -24 20 -26 33 -4 24 -29 55 -53 65 -8 3 -2 6 13 6 14 1 28 -3 30 -8z
m1376 -116 c58 -23 47 -30 -19 -11 -86 24 -208 9 -222 -26 -4 -10 -8 -10 -16
2 -19 27 -12 39 32 49 58 14 173 7 225 -14z m292 -1 l25 -15 -25 7 c-14 3 -29
10 -34 15 -16 14 6 10 34 -7z m-1380 -34 c-8 -5 -22 -10 -30 -10 -13 0 -13 1
0 10 8 5 22 10 30 10 13 0 13 -1 0 -10z m-2053 -16 c-3 -3 -12 -4 -19 -1 -8 3
-5 6 6 6 11 1 17 -2 13 -5z m3779 -44 c11 0 28 -6 38 -13 17 -12 15 -14 -20
-15 -22 -1 -64 4 -94 10 l-55 13 35 6 c19 4 44 5 55 3 11 -2 29 -4 41 -4z"/>
<path d="M2674 2984 c-27 -7 -52 -13 -56 -14 -5 0 -8 -10 -8 -22 -1 -13 -7
-34 -14 -47 -16 -28 -11 -51 10 -51 8 0 14 -7 14 -15 0 -25 47 -37 86 -23 19
7 34 18 34 25 0 7 7 10 17 6 12 -5 14 -3 8 7 -5 8 -4 11 2 7 10 -7 63 63 63
83 0 5 6 10 12 10 7 0 2 8 -12 17 -35 24 -100 31 -156 17z m120 -22 c11 -18
-10 -31 -39 -24 -28 8 -29 9 -10 20 24 14 42 15 49 4z m-114 -103 c0 -6 -4 -7
-10 -4 -5 3 -10 11 -10 16 0 6 5 7 10 4 6 -3 10 -11 10 -16z m70 17 c0 -3 -4
-8 -10 -11 -5 -3 -10 -1 -10 4 0 6 5 11 10 11 6 0 10 -2 10 -4z"/>
<path d="M2277 2732 c-8 -9 -17 -28 -20 -42 -6 -23 -5 -23 5 2 6 15 18 30 26
33 12 4 12 3 3 -9 -7 -8 -11 -27 -9 -43 l3 -27 18 26 c16 26 16 27 0 21 -17
-6 -17 -5 -1 13 13 15 14 21 3 31 -10 9 -16 8 -28 -5z"/>
<path d="M3735 992 c35 -37 40 -39 25 -12 -6 11 -20 25 -33 31 -17 10 -16 6 8
-19z"/>
<path d="M3403 2883 c24 -32 54 -74 66 -93 12 -19 21 -27 19 -18 -4 21 -110
168 -121 168 -5 0 12 -26 36 -57z"/>
<path d="M3350 2880 c0 -6 8 -23 19 -38 10 -15 36 -53 57 -86 21 -32 49 -65
61 -73 13 -9 21 -18 18 -22 -5 -10 64 -76 89 -85 16 -5 17 -4 7 8 -7 9 -21 18
-32 21 -10 4 -19 13 -19 21 0 8 -6 14 -14 14 -8 0 -17 4 -20 9 -3 4 7 6 22 3
l27 -5 -26 29 c-15 16 -28 34 -30 41 -6 18 -159 175 -159 163z"/>
<path d="M3505 2740 c10 -11 20 -18 23 -15 7 6 -18 35 -31 35 -5 0 -2 -9 8
-20z"/>
<path d="M2844 2099 c-4 -8 1 -9 16 -4 25 8 25 12 2 -78 -8 -29 -7 -47 3 -70
l14 -32 1 28 c0 31 24 46 49 30 20 -13 62 -85 57 -99 -2 -5 0 -33 5 -61 7 -39
6 -56 -6 -79 -8 -16 -16 -24 -16 -19 -1 6 -3 15 -4 20 -2 6 -4 19 -5 30 -1 16
-4 14 -10 -8 -9 -31 -5 -53 17 -78 30 -36 13 -183 -18 -163 -5 3 -8 2 -7 -3 1
-4 -3 -18 -11 -31 -22 -40 -6 -47 17 -8 12 20 26 35 31 31 5 -3 19 7 30 21 15
19 33 28 66 32 33 3 45 1 45 -9 0 -8 8 -5 20 9 11 12 20 26 20 32 0 6 5 8 11
5 6 -4 20 2 33 14 19 18 26 19 58 9 22 -6 55 -8 84 -3 61 10 53 12 -68 20 -87
6 -98 9 -98 26 0 10 4 19 10 19 5 0 6 -7 3 -17 -4 -11 -3 -14 6 -9 6 4 10 20
9 34 -3 23 1 27 20 25 23 -3 23 -3 -5 32 -35 44 -54 41 -70 -10 l-13 -40 5 45
c2 25 4 46 4 47 1 2 17 21 36 42 26 29 49 42 85 51 28 7 53 17 56 22 9 14 -49
1 -105 -23 -34 -15 -47 -16 -58 -8 -7 7 -12 17 -10 22 6 19 -21 82 -36 85 -18
4 -36 -45 -38 -102 -1 -23 -4 -31 -6 -18 -2 12 -9 20 -14 17 -5 -4 -9 15 -10
42 0 65 -14 142 -26 154 -6 6 -29 10 -52 11 -22 0 -41 5 -41 10 0 6 -7 8 -15
5 -8 -4 -17 -2 -20 3 -8 14 -42 13 -51 -1z"/>
<path d="M3168 2103 c6 -2 18 -2 25 0 6 3 1 5 -13 5 -14 0 -19 -2 -12 -5z"/>
<path d="M3941 2071 c13 -11 20 -23 16 -27 -4 -5 -12 -2 -17 6 -11 19 -24 6
-16 -16 4 -10 13 -14 26 -11 15 4 20 0 20 -14 0 -10 5 -19 10 -19 14 0 13 8
-11 57 -11 24 -28 43 -36 43 -11 0 -8 -6 8 -19z"/>
<path d="M3970 2084 c0 -7 38 -40 62 -54 22 -13 18 12 -7 40 -16 18 -55 28
-55 14z"/>
<path d="M2750 1998 l-33 -43 41 40 c44 41 47 45 34 45 -5 0 -24 -19 -42 -42z"/>
<path d="M2500 1983 c0 -20 11 -57 40 -128 4 -11 13 -39 19 -62 14 -52 33 -64
89 -53 61 11 61 17 -1 25 l-54 7 -13 51 c-16 66 -79 191 -80 160z"/>
<path d="M3140 1986 c0 -2 7 -9 15 -16 13 -11 14 -10 9 4 -5 14 -24 23 -24 12z"/>
<path d="M2970 1765 c0 -8 5 -15 10 -15 6 0 10 7 10 15 0 8 -4 15 -10 15 -5 0
-10 -7 -10 -15z"/>
<path d="M3055 1533 c-31 -16 -45 -31 -45 -48 0 -5 7 1 16 13 8 12 21 22 28
22 7 0 21 7 32 15 25 19 7 18 -31 -2z"/>
<path d="M3207 1539 c7 -7 15 -10 18 -7 3 3 -2 9 -12 12 -14 6 -15 5 -6 -5z"/>
<path d="M3150 1537 c0 -2 12 -19 26 -38 27 -35 28 -33 5 14 -12 22 -31 37
-31 24z"/>
<path d="M3260 1511 c0 -15 53 -32 132 -42 44 -6 82 -9 84 -6 3 3 -25 8 -63
12 -37 4 -87 15 -110 26 -24 10 -43 14 -43 10z"/>
<path d="M2971 1474 c0 -11 3 -14 6 -6 3 7 2 16 -1 19 -3 4 -6 -2 -5 -13z"/>
<path d="M3209 1441 c9 -16 53 -51 65 -51 2 0 -12 16 -31 35 -39 39 -48 44
-34 16z"/>
<path d="M3259 1428 c10 -13 26 -18 60 -16 l46 1 -45 4 c-24 3 -51 10 -60 16
-13 11 -13 10 -1 -5z"/>
<path d="M2906 1415 c-3 -9 -6 -22 -5 -28 0 -7 5 -1 10 12 5 13 8 26 5 28 -2
2 -6 -3 -10 -12z"/>
<path d="M2926 1402 c-3 -5 -1 -22 4 -38 8 -29 8 -29 9 9 1 36 -3 45 -13 29z"/>
<path d="M2940 1321 c0 -6 4 -13 10 -16 6 -3 7 1 4 9 -7 18 -14 21 -14 7z"/>
<path d="M2990 1291 c0 -8 31 -34 68 -55 24 -14 11 1 -28 33 -22 17 -40 28
-40 22z"/>
<path d="M3890 1150 c19 -13 30 -13 30 0 0 6 -10 10 -22 10 -19 0 -20 -2 -8
-10z"/>
<path d="M3935 1075 c22 -20 49 -41 60 -46 11 -6 2 6 -20 26 -22 20 -49 41
-60 46 -11 6 -2 -6 20 -26z"/>
<path d="M4010 971 c0 -6 4 -13 10 -16 6 -3 7 1 4 9 -7 18 -14 21 -14 7z"/>
</g>
</svg>
